<?xml version="1.0" encoding="utf-8"?>
<!-- Generator: Adobe Illustrator 22.0.1, SVG Export Plug-In . SVG Version: 6.00 Build 0)  -->
<svg version="1.1" id="Layer_1" xmlns="http://www.w3.org/2000/svg" xmlns:xlink="http://www.w3.org/1999/xlink" x="0px" y="0px"
	 viewBox="0 0 704 220" style="enable-background:new 0 0 704 220;" xml:space="preserve">
<style type="text/css">
	.st0{fill:#00FCE1;stroke:#00FCE1;}
	.st1{fill:#FFFFFF;stroke:#FFFFFF;}
	.st2{fill:none;stroke:#00FCE1;stroke-linecap:round;stroke-linejoin:round;stroke-miterlimit:10;}
</style>
<path class="st0" d="M78.1,122.1c2.3,0,3.5,2.4,3.5,7.1c0,4.8-2.4,9.7-7.1,14.7c-4.2,3.9-8.3,7.8-12.5,11.7
	c-6.2,15.7-12.2,28.2-17.8,37.5v0.9c11.6,0,19.5,0.2,24,0.5c11.8,1,19,3.2,21.5,6.6c0,2.8,0,4.4,0,4.6c-0.3,2.3-1,3.4-2.2,3.4
	c-1.3,0-2.9-0.6-4.9-1.8c-8.8-5.4-18.4-8.2-28.9-8.2c-7.4,0-11.7,0.7-13.1,2c-3.1,3.3-6.2,6.5-9.3,9.8c-3.8,3.5-7.9,5.3-12.2,5.3
	c-3,0-5.7-0.5-8.2-1.5c-3.4-1.3-5-3.2-5-5.7c0-1.4,2.5-3,7.4-4.8c3.2-1,6.3-2.1,9.5-3.1c3.6-1.3,8.5-6.7,14.7-16.3
	c5.8-9,9.2-15.9,10.2-20.4h-0.8c-3.9,3.1-8,5.2-12.5,6.3c-0.3,0.1-1.1,0.3-2.5,0.8c-1,0.4-1.8,0.5-2.3,0.5c-1.4,0-2.1-1.1-2.3-3.2
	c-0.2-2.1,0.7-3.4,2.5-4c0.7-0.2,2.4-0.3,5.1-0.3c5.1,0,10-2.1,14.7-6.3c4.5-3.9,7.4-8.5,8.8-13.6c0.6-2,1.3-3.6,2.1-4.9
	c3.5-5.5,6-9.2,7.5-11C71.6,124.3,75,122.1,78.1,122.1z M21.8,204.5c-0.4,0-2.4,0.6-6.1,1.9c-3.7,1.3-5.8,2.1-6.4,2.5
	c0.8,1.3,2.4,2,4.8,2c1.9,0,3.9-0.5,6.2-1.4c2.8-1.1,4.2-2.5,4.2-4v-0.9H21.8z M78.9,127c-4.1,3.5-6.8,7.4-8.1,11.6l0.5,0.1
	c1.8,0,3.6-1.4,5.4-4.3c1.6-2.7,2.3-5,2.2-6.8V127z"/>
<path class="st0" d="M120.9,172.1c3.8,0,6.2,2.5,7.2,7.5c1.8,1.5,2.7,4.5,2.7,8.8c0,5.5-2.5,10.6-7.5,15.4s-10.3,7.1-15.8,7.1
	c-2.6,0-5.2-1.3-7.7-3.9c-2.6-2.6-3.8-5.2-3.8-7.8c0-2.6,0.6-5.9,1.8-9.9h-0.8c-1.3,1.3-2.2,2.1-2.9,2.6c-1.1,0.8-2.3,1.3-3.6,1.4
	c0-3.3,0.7-5.5,2-6.6c4.1-3.5,8.6-6.7,13.4-9.4C112,173.8,117,172.1,120.9,172.1z M122.8,180.5c-3.2,1.3-6.3,2.7-9.5,4
	c-3.1,1.5-5.4,3.3-6.8,5.3c-1.7,2.5-2.6,6-2.6,10.4c0,4.1,1.2,6.1,3.6,6.1c3.2,0,6.6-2.1,10.1-6.3c3.4-4,5.1-7.7,5.1-10.9
	c0-4.3,0.3-7.2,0.8-8.6H122.8z"/>
<path class="st0" d="M184.8,173.9c1.4,0,2.6,0.5,3.7,1.4c1.1,0.9,1.7,2.1,1.7,3.4c0,2.5-1.2,4-3.5,4.4c-4.9,0.9-9.3,3.3-13.4,7.1
	c-3.5,3.8-7,7.6-10.4,11.4c-5.8,6.2-9.1,9.3-10.1,9.3l-0.9-0.1c-3.5-3.1-5.3-6.3-5.3-9.7c0-2,0.5-4.8,1.5-8.4
	c1.1-4.1,1.7-6.9,1.9-8.5l-0.6-0.1c-1.2,0.4-2.1,0.7-2.7,0.9c-0.8,1-2,2.2-3.5,3.6c-1.9,1.8-3.1,2.7-3.7,2.7c-1.1,0-1.7-0.7-1.7-2.2
	c0-1.9,2.6-4.5,7.7-8c5-3.4,8.7-5.1,11-5.1c2.4,0,3.7,1.9,3.7,5.7c0,4.2-1,8.4-3,12.5c-0.5,1-0.5,3,0.1,6l19.6-21.5
	C179.7,175.5,182.3,173.9,184.8,173.9z"/>
<path class="st0" d="M212.4,173.2c5.3,0,8,1.3,8,4c0,2-2.2,4.6-6.7,7.8c-4.2,2.7-8.3,5.3-12.5,8c-4.5,3-6.7,5.4-6.7,7.1
	c0,1.8,0.7,2.7,2.2,2.7c4.5,0,10.4-2.2,17.8-6.7c6.3-3.8,11.5-7.8,15.7-12.1h2.2c0,5.3-4.4,10.9-13.2,16.8
	c-8.3,5.5-15.3,8.2-20.9,8.2c-7.1,0-10.7-3.7-10.7-11.2c0-1,0.7-3.3,2.1-6.9c1.3-3.5,2.4-5.8,3.1-6.9
	C197.6,176.8,204.2,173.2,212.4,173.2z M210.5,178.7c-2.6,0-5.2,1-7.6,3.1c-2.3,1.9-3.9,4.1-4.8,6.7l0.9,0.1c1.3,0,3.6-1.4,6.9-4.1
	c2.8-2.2,5-4.2,6.4-5.9H210.5z"/>
<path class="st0" d="M298.6,136.3c1.6,0,2.3,1.9,2.3,5.6c0,0.7,0,1.6-0.1,2.6c-0.1,1-0.1,1.6-0.1,1.8c0.9,0.2,2.2,0.3,3.9,0.3
	c1.3,0,3.3-0.5,6-1.4c2.7-0.9,4.8-1.4,6.1-1.4c1,0,1.5,0.6,1.5,1.8c0,1.1-0.8,2.8-2.4,4.9c-1.6,2.1-2.9,3.2-3.9,3.2
	c-1.1,0-2-0.3-2.9-0.9l-11.6,2.7c-0.3,0.1-0.8,0.6-1.7,1.7c-6.4,7.9-10.2,12.9-11.4,15.2c-2.6,4.9-4,11.1-4,18.6
	c0,1.7,0.5,3.8,1.4,6.6c0.9,2.7,1.4,4.9,1.4,6.6c0,3.2-0.9,4.8-2.7,4.8c-4.2,0-6.3-5.5-6.3-16.7c0-1.2,0.2-3.1,0.5-5.5
	s0.5-4.3,0.5-5.5v-0.9c-0.8,0.6-4.1,3.5-9.8,8.6c-4.3,3.9-7.6,6.4-9.8,7.4c-0.2-1.1-0.2-2-0.2-2.6c0-2.3,2.2-5.8,6.7-10.4
	c4.2-4.2,8.4-8.4,12.6-12.6c4.5-5,6.7-9.3,6.7-12.6c-3.5,1.2-8.9,2.6-16.1,4.4c-9.1,1.4-15.7,3.5-19.6,6.3c-1.1-0.8-1.7-2.4-1.7-4.5
	c0-2.9,2.3-4.9,7-6.1c5.4-1.5,13.4-3.6,24.1-6.3c1.4-0.2,3.5-0.5,6.3-0.9c2.6-0.6,5.1-2.2,7.6-4.7c0.7-0.7,2.5-2.9,5.4-6.6
	C296.3,137.4,297.6,136.3,298.6,136.3z"/>
<path class="st0" d="M333.3,130.5c0.8-0.3,1.5-0.5,2.1-0.5c2.1,0,3.2,1.8,3.2,5.4c0,5.4-3,13.3-8.9,23.5c-1.1,1.9-2.7,4.1-4.8,6.5
	c-2.6,3.1-4.3,5.1-4.9,6.1c-3.4,4.7-6.7,11-9.9,18.7h0.9c3.7-3.1,7.4-6.2,11.1-9.3c4.9-3.9,9-5.9,12.3-5.9c4.7,0,7,1.6,7,4.7
	c0,1.9-0.5,4.5-1.4,8c-0.9,3.5-1.4,6.1-1.4,7.8c0,1.2,0,2.1,0.1,2.7c2-1.1,4.8-3.2,8.4-6.3c3.5-3,6.3-5.1,8.5-6.2
	c0.6,0.3,0.9,0.7,0.9,1.3c0,3.1-1.3,5.7-3.8,7.9c-2.3,1.7-4.6,3.4-6.8,5.1c-2.8,2.4-4.3,3.7-4.7,4c-2,1.5-3.9,2.2-5.6,2.2
	c-1.6,0-3-0.8-4.2-2.4c-1.1-1.5-1.7-3.1-1.7-4.7c0-1.5,0.3-3.8,0.9-6.9c0.6-3.1,0.9-5.4,0.9-7c0-1.6-0.9-2.4-2.7-2.2
	c-9,5.8-17.9,13.6-26.7,23.2c-1.6,1.8-3,2.7-4.2,2.7c-1.4,0-2.1-1.2-2.1-3.5c0-1.7,0.5-3.8,1.4-6.4c1.1-3.1,1.8-5.1,2-6.2h-3.7
	c0-2.9,0.3-4.6,1-5.3c3.9-3.9,6.6-6.7,8-8.3c2.6-3.1,4.7-6.3,6.3-9.6c3.3-6.9,6.6-13.8,9.9-20.7
	C325.3,140.5,329.4,134.3,333.3,130.5z"/>
<path class="st0" d="M381.2,173.2c5.3,0,8,1.3,8,4c0,2-2.2,4.6-6.7,7.8c-4.2,2.7-8.3,5.3-12.5,8c-4.5,3-6.7,5.4-6.7,7.1
	c0,1.8,0.7,2.7,2.2,2.7c4.5,0,10.4-2.2,17.8-6.7c6.3-3.8,11.5-7.8,15.7-12.1h2.2c0,5.3-4.4,10.9-13.2,16.8
	c-8.3,5.5-15.3,8.2-20.9,8.2c-7.1,0-10.7-3.7-10.7-11.2c0-1,0.7-3.3,2.1-6.9c1.3-3.5,2.4-5.8,3.1-6.9
	C366.4,176.8,373,173.2,381.2,173.2z M379.3,178.7c-2.6,0-5.2,1-7.6,3.1c-2.3,1.9-3.9,4.1-4.8,6.7l0.9,0.1c1.3,0,3.6-1.4,6.9-4.1
	c2.8-2.2,5-4.2,6.4-5.9H379.3z"/>
<path class="st1" d="M465.7,174.2c3.5,0,5.3,3.3,5.3,9.8c0,1.1-0.1,2.5-0.2,4.2c-0.1,1.6-0.2,2.6-0.2,2.8c1.3,0,4-1.9,8.3-5.7
	c4.2-3.8,7.8-5.7,10.6-5.7c3.5,0,5.3,3.8,5.3,11.5c0,1-0.1,3-0.2,6c3.6,0,7.8-2.2,12.6-6.6c0.7-0.4,1.6-0.4,2.7,0
	c0.6,0.9,0.9,1.7,0.9,2.2c0,0.6-0.3,1.1-0.9,1.4c-1.7,2-4.2,4.2-7.4,6.9c-4.1,3.3-6.7,5.5-7.8,6.4c-0.2,0-0.5,0-0.9,0.1
	c-0.4,0-0.7,0.1-0.9,0.1c-4.7,0-7.1-4.2-7.1-12.5c0,0.3,0.1-2.1,0.3-7.3H485c-1.1,0.6-4.4,3.8-10,9.5c-5.4,5.5-8.2,8.3-8.4,8.3
	c-2.9,0-4.3-2.8-4.3-8.3c0-1.5,0.1-3.6,0.3-6.3c0.2-2.7,0.3-4.5,0.3-5.5c0-2.2-0.4-3.3-1.3-3.3c-1.8,0-6.6,4.5-14.3,13.4
	c-7.7,9-11.7,13.4-12,13.4c-1.6,0-2.6-0.6-3.1-1.8c0-0.2-0.1-0.9-0.2-2c-0.1-0.8,0-1.5,0.1-2c0.9-3.4,2.6-6.8,5.1-10.2
	c2-2.7,3-5,3-7.1c-2,0-4,1.2-6.2,3.5s-3.8,3.5-5,3.5c-0.8,0-1.2-1-1.2-3.1c0-2.9,2.2-5.7,6.7-8.4c4.1-2.4,7.7-3.7,10.8-3.7
	c1.5,0,2.5,2.4,2.9,7.1c1.7-1.5,4.6-3.6,8.5-6.2C461.5,175.7,464.4,174.2,465.7,174.2z"/>
<path class="st1" d="M530.1,175.7c1,0,2.2,0.9,3.5,2.7c1.3,1.8,2,3.2,2,4.3c0,0.7-1.3,2.9-3.8,6.6c-2.5,3.7-3.9,7.2-4,10.5
	c0.9,0,3.7-1.7,8.3-5.2c4.5-3.4,7.3-5.7,8.4-7c2.1-2.4,4.1-4.8,6.2-7.1c3-3.1,5.5-4.6,7.6-4.6c1.2,0,2.7,0.7,4.3,2
	c1.6,1.3,2.4,2.6,2.4,3.8c0,1.9-0.8,4.8-2.4,8.6c-1.7,4.1-2.7,7-2.9,8.8c2,0,5.1-1.9,9.4-5.8c4.2-3.9,6.6-5.8,7-5.8
	c1.5,0,2.3,0.9,2.3,2.7c0,1.2-3.2,4.2-9.6,9.2c-5.3,4.1-9.3,7-11.9,8.5c-4.2-0.8-6.3-3.8-6.3-9.2c0-1,0.2-2.5,0.5-4.5
	c0.3-2,0.5-3.5,0.5-4.5c0-0.5,0-0.9-0.1-1.4c-1.3,0.8-5.6,4.6-13.1,11.3c-6.7,6-10.7,9.1-11.8,9.3c-0.7,0.2-1.5,0.3-2.1,0.3
	c-4.8,0-7.1-3.5-6.8-10.5c0.1-1.8,1.6-5.5,4.6-11.2l-0.4-0.1c-1,0.2-2.7,1-5,2.2c-2.1,1.2-3.8,1.8-5.2,1.9c0-2.3,2.5-5.6,7.5-9.8
	C524,177.8,527.7,175.7,530.1,175.7z"/>
<path class="st1" d="M592.7,168.4c2.3,0,4.2,2.6,5.7,7.7c1.1,3.9,1.7,7.5,1.7,10.6c0,0.8-0.1,2-0.4,3.6c-0.3,1.6-0.4,2.8-0.4,3.6
	l0.1,0.6c1.7,0,7.4-3.8,16.9-11.4h3.4c0,3.6-5.8,9.4-17.4,17.2c-11.2,7.5-18.7,11.3-22.6,11.3c-5.4,0-8.2-2.1-8.2-6.2
	c0-3.1,2.2-4.6,6.6-4.6c0.6,0,1.5,0,2.6,0.1s1.9,0.1,2.3,0.1c2.4,0,4.4-1.3,6.1-3.9c0.8-1.4,1.8-3.7,2.9-6.9
	c0.6-1.9,0.9-3.4,0.9-4.7c0-1.4-0.3-2.8-0.9-4.2l-0.9-0.9c-10.6,10.1-16.9,15.2-19,15.2c-0.9,0-1.3-0.8-1.3-2.3
	c0-1.1,0.6-2.2,1.7-3.1c2.2-1.7,4.4-3.4,6.7-5.1c3.2-2.5,5.1-4.3,5.8-5.5c0.9-2.1,2.4-5,4.5-9C590.4,169.1,591.5,168.4,592.7,168.4z
	"/>
<path class="st1" d="M630,173.9c1.4,0,2.6,0.7,3.6,2.1c0.9,1.3,1.4,2.7,1.4,4.1c0,2.2-0.7,5.3-2.1,9.2c-1.4,4.1-2.1,7.2-2.2,9.5
	c2.5,0,6-1.7,10.6-5.2c4.6-3.5,7.3-5.3,8.1-5.3c0,3.4-1,6.2-2.9,8.2c-2.2,2.4-5.3,5-9.2,7.7c-4.7,3.2-8.2,4.8-10.5,4.8
	c-3.5,0-5.3-2.8-5.3-8.5c0-2,0.8-4.8,2.3-8.5c1.5-3.6,2.3-6.2,2.3-7.5V184c-2.8,0.4-6,1.9-9.6,4.5c-3.6,2.7-5.8,4.1-6.7,4.2
	c0-3.4,1.6-6.3,4.7-8.7c1.1-0.9,3.8-2.7,8.1-5.6C627.1,175.4,629.6,173.9,630,173.9z M641.2,149.3c0.4-0.3,0.7-0.4,1.1-0.4
	c1.7,0,2.6,2,2.6,5.9c0,2.3-1,3.5-3,3.5c-3,0-4.4-1.6-4.4-4.8C637.5,151.2,638.7,149.8,641.2,149.3z"/>
<path class="st1" d="M686.4,178.3c0,2.6-1.4,4-4.2,4.1c-1.8-0.7-3.6-1.1-5.4-1.1c-4.3,0-8.5,2.1-12.7,6.3c-4.3,4.2-6.5,8.6-6.5,13.1
	c0,2.1,0.7,3.1,2.2,3.1c4.6,0,10.8-2.5,18.6-7.4c5.9-3.8,11.8-7.6,17.6-11.5c0.2,1.1,0.3,2.1,0.3,2.7c0,2.9-3.4,6.6-10.3,11.2
	c-4.9,3-9.7,6-14.6,9c-3,1.3-5.5,2-7.5,2c-8.9,0-13.4-3.5-13.4-10.6c0-3.8,2.3-8.9,7-15.2c2.7-3.6,5.5-6.2,8.5-7.8
	c3-1.6,6.7-2.6,11.2-2.9l2.7-0.2C684.2,173.1,686.4,174.9,686.4,178.3z"/>
<polyline class="st2" points="287.2,50.2 296.3,30.2 287,54.3 300.5,24.9 287.5,59 304.8,21.7 288.5,63.1 310,15.8 289.7,66.1 
	314.3,13 291.1,69.1 317.4,11.3 292.7,71.7 321.5,9.9 294.5,74.3 324.8,8.9 296.4,76.7 327.8,8.9 298.4,79 331,8.9 300.7,81.3 
	333.9,9.4 302.7,83.3 336.7,10.2 304.9,85.2 339.1,11.1 306.9,86.8 341.8,12.4 308.9,88.3 344.3,13.8 311,89.9 346.5,15.3 
	313.5,91.7 349,17.2 316.2,93.5 351.2,19.1 319.1,95.3 353.6,21.4 321.9,97 356,24.1 324.8,98.6 358.5,27 328.4,100.6 360.9,30.2 
	331.6,102.2 363,33.2 335.7,104.2 365.3,36.8 339.9,106.2 366.7,41.5 345.3,107 368.8,43 348.5,109.3 372.2,40.3 351.7,110.8 
	377.1,32.3 355.2,112 382.8,24.6 359.3,113.7 387.4,19.7 362.7,114.5 392.4,15.5 366.3,115.7 397.7,12.1 370.2,116.7 402.2,10.3 
	375.8,114.8 406.7,8.9 380.8,112.8 411.5,9 386.2,111.2 416.5,9.7 391.7,108.3 420.8,11.2 398,105.5 425.7,13.8 405,102.5 430.1,17 
	412.3,99.8 434.2,20.8 418.2,96.5 438.2,25 424,92.8 441.8,29.6 430.2,86.8 445.3,34.5 435,82.7 448.7,40.6 441.3,78.2 450.8,46.8 
	446.8,70.7 451.7,53.7 "/>
</svg>
